<svg id="图层_1" data-name="图层 1" xmlns="http://www.w3.org/2000/svg" xmlns:xlink="http://www.w3.org/1999/xlink" viewBox="0 0 16 16"><defs><style>.cls-1{fill:none;stroke:#fff;stroke-miterlimit:10;stroke-width:0.5px;opacity:0.3;}.cls-2{fill:#229efa;}.cls-3{fill:#9948f7;}.cls-4{fill:#33bc7a;}.cls-5{fill:url(#未命名的渐变_3);}.cls-6{fill:url(#未命名的渐变_13);}.cls-7{fill:url(#未命名的渐变_11);}</style><linearGradient id="未命名的渐变_3" x1="6.16" y1="14.63" x2="6.16" y2="6.01" gradientUnits="userSpaceOnUse"><stop offset="0" stop-color="#2e3192"/><stop offset="0" stop-color="#229efa"/><stop offset="0.44" stop-color="#239cf8"/><stop offset="0.6" stop-color="#2795f2"/><stop offset="0.71" stop-color="#2d8ae8"/><stop offset="0.81" stop-color="#3679d9"/><stop offset="0.89" stop-color="#4263c6"/><stop offset="0.95" stop-color="#5048af"/><stop offset="1" stop-color="#5c319b"/></linearGradient><linearGradient id="未命名的渐变_13" x1="10.75" y1="8.2" x2="4.49" y2="1.94" gradientUnits="userSpaceOnUse"><stop offset="0" stop-color="#991146"/><stop offset="0" stop-color="#326b4e"/><stop offset="0.02" stop-color="#3a685c"/><stop offset="0.07" stop-color="#506180"/><stop offset="0.13" stop-color="#645aa0"/><stop offset="0.19" stop-color="#7554bc"/><stop offset="0.26" stop-color="#8250d2"/><stop offset="0.35" stop-color="#8d4ce3"/><stop offset="0.45" stop-color="#944aee"/><stop offset="0.6" stop-color="#9848f5"/><stop offset="1" stop-color="#9948f7"/></linearGradient><linearGradient id="未命名的渐变_11" x1="15.34" y1="6.67" x2="7.88" y2="10.98" gradientUnits="userSpaceOnUse"><stop offset="0" stop-color="#33bc7a"/><stop offset="0.45" stop-color="#32ba7a"/><stop offset="0.61" stop-color="#2fb37c"/><stop offset="0.73" stop-color="#29a87e"/><stop offset="0.82" stop-color="#219782"/><stop offset="0.9" stop-color="#168186"/><stop offset="0.97" stop-color="#09668b"/><stop offset="1" stop-color="#03598e"/></linearGradient></defs><title>logo</title><rect class="cls-1" x="-143.14" y="-373.46" width="597.8" height="424.44"/><circle class="cls-2" cx="12.02" cy="1.83" r="1.33"/><circle class="cls-3" cx="12.02" cy="14.17" r="1.33"/><circle class="cls-4" cx="1.33" cy="8" r="1.33"/><path class="cls-5" d="M7.91,10h0a2.65,2.65,0,0,1-.23-3.74A1.75,1.75,0,0,1,7.91,6h0A2.66,2.66,0,0,1,4.4,6h0a1.81,1.81,0,0,1,.24.24A2.65,2.65,0,0,1,4.4,10h0a2.62,2.62,0,0,0-.89,2,2.65,2.65,0,1,0,4.4-2Z"/><path class="cls-6" d="M12.19,5.49a2.78,2.78,0,0,1-.5.11A2.64,2.64,0,0,1,8.76,3.5h0a2.65,2.65,0,1,0-2.6,3.17A2.6,2.6,0,0,0,7,6.53H7a2.65,2.65,0,0,1,3.44,2,2.94,2.94,0,0,1,0-.51A2.65,2.65,0,0,1,12.19,5.49Z"/><path class="cls-7" d="M13,5.35a2.64,2.64,0,0,0-2.59,2.12h0a3,3,0,0,1-.08.32A2.65,2.65,0,0,1,7.54,9.58a2.86,2.86,0,0,0,.37.41h0a2.63,2.63,0,0,1,.9,2,2.84,2.84,0,0,1-.05.51,2.64,2.64,0,0,1,3.12-2.06l.32.08h0a2.6,2.6,0,0,0,.84.14,2.65,2.65,0,1,0,0-5.3Z"/></svg>