<?xml version="1.0" standalone="no"?><!DOCTYPE svg PUBLIC "-//W3C//DTD SVG 1.1//EN" "http://www.w3.org/Graphics/SVG/1.1/DTD/svg11.dtd"><svg t="1713277647581" class="icon" viewBox="0 0 1024 1024" version="1.1" xmlns="http://www.w3.org/2000/svg" p-id="17079" xmlns:xlink="http://www.w3.org/1999/xlink" width="64" height="64"><path d="M518.4 896c-38.4 0-64-25.6-64-64V256c0-38.4 25.6-64 64-64h262.4c12.8-38.4 51.2-64 89.6-64 51.2 0 96 44.8 96 96S921.6 320 870.4 320c-44.8 0-76.8-25.6-89.6-64H518.4v256h198.4c12.8-38.4 51.2-64 89.6-64h160v192h-160c-44.8 0-76.8-25.6-89.6-64H518.4v256h256v-64h192v192h-192v-64h-256z m-217.6-230.4V588.8l-192 6.4c-25.6 0-44.8-19.2-44.8-38.4 0-25.6 19.2-44.8 38.4-44.8l192-6.4V428.8L448 544l-147.2 121.6z" fill="#2c2c2c" p-id="17080"></path></svg>