<?xml version="1.0" standalone="no"?><!DOCTYPE svg PUBLIC "-//W3C//DTD SVG 1.1//EN" "http://www.w3.org/Graphics/SVG/1.1/DTD/svg11.dtd"><svg t="1713277165665" class="icon" viewBox="0 0 1024 1024" version="1.1" xmlns="http://www.w3.org/2000/svg" p-id="12832" width="64" height="64" xmlns:xlink="http://www.w3.org/1999/xlink"><path d="M245.142973 517.424235c-80.029108-82.079085-107.018808-202.237747-69.769222-310.656539a301.776637 301.776637 0 0 1 154.168282-174.698053A303.253621 303.253621 0 0 1 562.499437 17.699803c154.32828 53.009409 239.797328 216.727585 194.697831 372.925844-4.739947 14.36984-19.999777 22.39975-34.539615 18.189798-14.529838-4.219953-23.119742-19.169786-19.439784-33.849623 36.79959-127.42858-33.039632-261.097091-158.84823-304.186611a247.448243 247.448243 0 0 0-190.087882 11.68987 246.142257 246.142257 0 0 0-125.768598 142.508412c-30.419661 88.479014-8.379907 186.547921 56.949365 253.527175l-0.029999-0.02a28.015688 28.015688 0 0 1-0.579994 39.669558c-11.179875 10.72988-28.939678 10.409884-39.709558-0.729991z m618.483109 68.349238l-0.089999 82.119085a184.067949 184.067949 0 0 1-4.059955 32.359639l-59.439337 238.827339 0.049999 0.03c-12.019866 43.789512-53.799401 77.319138-104.038841 83.569069l-174.878051 1.249986c-20.419772 0.779991-42.489527-4.849946-61.96931-15.889823-8.729903-4.949945-15.449828-10.359885-21.979755-15.589826-12.809857-12.54986-22.279752-26.209708-27.909689-39.939555-16.589815-39.269562-31.899645-67.709246-49.709446-92.178973L231.583125 678.47244c-25.059721-33.589626-15.559827-80.939098 21.219763-105.408825 27.049699-18.169798 63.089297-19.549782 91.628979-3.489962 9.319896 5.099943 17.429806 11.929867 23.809735 20.069777l17.709803 22.509749 0.179998-141.918419 1.029988-19.599781-0.059999-152.138305c-0.149998-20.419772 8.399906-40.069554 23.779735-54.599392 15.369829-14.539838 36.299596-22.769746 58.179351-22.889745 14.589837-0.179998 29.569671 3.669959 42.149531 10.79988 24.359729 13.899845 39.44956 38.439572 40.019554 65.089275l-0.189998 90.318993c6.999922-1.81998 14.209842-2.779969 21.469761-2.889967 16.389817-0.599993 30.449661 2.569971 43.04952 9.719891 11.859868 6.719925 22.049754 18.119798 29.519671 32.949633 3.219964 5.669937 5.689937 11.64987 7.039922 17.019811 8.519905-2.72997 16.729814-3.459961 24.489727-3.759959 15.519827-0.689992 30.919655 2.929967 44.249507 10.399885 12.59986 7.13992 22.099754 17.329807 29.059676 31.159652 3.62996 8.499905 6.209931 17.359807 7.709914 26.399706a89.414004 89.414004 0 0 1 24.24973-3.679959c18.189797 0.109999 31.769646 3.319963 44.229507 10.379885 4.999944 2.829968 8.9699 5.089943 13.44985 9.319896 15.26983 14.36984 23.36974 34.609614 24.029732 60.10933l0.04 1.429984z m-58.159352 81.089096l-0.379996-83.729067c-0.719992-6.679926-1.729981-16.219819-7.349918-21.899756-1.169987-1.589982-1.509983-2.079977-1.76998-2.389973-1.959978-1.079988-5.329941-1.269986-9.169898-1.479983l-3.899956-0.239998c-9.209897-0.249997-15.419828 3.419962-19.309785 11.479872-4.109954 8.549905-3.769958 17.129809-3.809958 17.199809l-0.079999 23.209741c-0.609993 15.819824-13.859846 28.189686-30.169664 28.369684-5.839935 0.219998-11.119876-0.92999-15.569826-3.449962-8.869901-5.029944-14.579838-14.069843-14.529838-23.049743l-0.08-93.858954c0.179998-2.299974-0.729992-16.389817-9.479894-21.349762-2.759969-1.569983-6.29993-2.409973-12.189864-2.859968-4.959945 0.139998-21.489761 0.509994-22.129753 24.909722l-0.05 66.029264c-0.109999 6.26993-2.809969 12.259863-7.539916 16.709814-4.719947 4.47995-11.219875 6.909923-17.9398 6.729925l-6.589927-0.509994c-5.41994 0.249997-10.699881-0.89999-15.099831-3.399962-8.419906-4.679948-13.509849-13.219853-13.329852-22.369751l0.03-66.139263-0.509994-52.559414c0-0.149998-0.319996-17.729802-11.139876-23.859734-3.159965-1.669981-6.789924-2.419973-10.409884-2.149976-8.9899-0.049999-14.979833 3.239964-18.599793 10.129887-2.469972 5.179942-3.709959 10.79988-3.62996 16.469816l-0.539994 122.788632c-1.879979 12.699858-12.139865 21.849757-24.449727 22.309751l-8.449906-0.059999c-2.589971-0.179998-8.299908-0.89999-13.539849-3.869957-7.909912-4.199953-12.819857-12.029866-12.849857-20.529771l-0.649993-291.166756c0.589993-7.129921-3.129965-13.139854-10.469883-17.299807-3.449962-2.089977-7.519916-3.089966-11.619871-2.839968-6.149931 0.189998-11.979867 2.589971-16.289818 6.679925-4.209953 3.969956-6.449928 9.399895-6.189931 14.989833l0.229997 398.785557c-0.169998 12.099865-8.609904 22.729747-20.949766 26.409705-9.119898 2.079977-17.9598 0.88999-25.269719-3.259963-2.789969-1.579982-6.979922-3.949956-9.269896-7.309919l-71.049209-92.118973c-1.139987-0.769991-2.079977-1.609982-3.009966-2.449973-1.179987-1.069988-2.279975-2.059977-3.819958-2.929967-7.699914-4.359951-17.889801-3.969956-25.339717 0.999988-10.199886 7.019922-12.709858 20.279774-5.709937 30.139665l127.958575 181.737975c21.609759 29.889667 40.539548 64.64928 56.219373 103.18885 4.989944 14.689836 16.089821 23.439739 24.499727 28.209686 7.909912 4.48995 18.199797 6.939923 30.56966 7.249919l174.138059-1.209987-0.039999 0.01c21.889756-0.499994 41.469538-15.089832 49.719446-37.139586l59.21934-238.177346c1.099988-6.28993 2.299974-13.099854 1.679981-19.079788zM629.428692 382.135742a28.015688 28.015688 0 0 0 21.409761-1.76998 28.041688 28.041688 0 0 0 13.869845-16.409817c31.819645-100.258883-16.519816-209.157669-112.418747-253.437176-104.97883-48.42946-229.667441-2.599971-277.906903 102.148861-33.059632 71.479204-23.019744 155.498267 25.939711 217.18758 4.599949 5.869935 11.329874 9.669892 18.729791 10.559883 7.399918 0.88999 14.839835-1.199987 20.699769-5.819936a28.013688 28.013688 0 0 0 10.519883-18.709791c0.87999-7.389918-1.229986-14.819835-5.839935-20.65977-35.849601-45.159497-43.209519-106.668811-19.009788-159.008228 35.309607-76.669146 126.56859-110.208772 203.427733-74.749167 70.219218 32.449638 105.578824 112.078751 82.319083 185.427934-4.659948 14.759836 3.499961 30.50966 18.259797 35.239607z" p-id="12833" fill="#2c2c2c"></path></svg>