<?xml version="1.0" standalone="no"?><!DOCTYPE svg PUBLIC "-//W3C//DTD SVG 1.1//EN" "http://www.w3.org/Graphics/SVG/1.1/DTD/svg11.dtd"><svg t="1713277599160" class="icon" viewBox="0 0 1034 1024" version="1.1" xmlns="http://www.w3.org/2000/svg" p-id="15039" xmlns:xlink="http://www.w3.org/1999/xlink" width="64.625" height="64"><path d="M874.873365 56.142072a791.600107 791.600107 0 0 0-186.441923 42.253816c-112.234165 40.160387-203.716516 98.436794-276.180594 178.752499-10.401251 11.622841-23.063203 15.394055-38.026408 13.822716-7.892178-0.892115-14.192741-1.571339-28.182727-3.350501-9.985607-1.297622-19.976282-2.48373-29.987234-3.563391a369.082219 369.082219 0 0 0-40.84468-2.250563c-49.558009 0.420713-87.944303 22.201501-115.670836 65.18523l-29.206632 45.553628-2.306321 3.664769-37.255944 57.962138c-16.402753 25.288422-23.681601 36.647684-32.339173 50.627534-12.144931 19.793804-1.692991 41.311013 19.98642 42.831663 44.636169 3.345432 90.656131 6.229599 150.671148 9.529412 22.03423 1.201314 36.74906 13.609824 38.847559 36.647684 2.868961 29.951752 10.811827 55.60513 24.801814 77.857319 28.649061 45.604317 69.904316 71.207007 125.453689 78.485856l7.177472 1.04418c27.726533 4.085482 37.92503 16.651126 40.028597 45.031539l0.405507 5.915331c4.207134 59.791989 7.486671 101.731537 11.430225 143.356818 2.052879 21.7301 23.265957 31.933666 42.02065 19.738047l24.705506-15.916145 3.538048-2.30632c68.672589-44.453691 100.80394-65.70732 138.369083-92.61777 42.689736-30.473842 60.988234-72.149811 55.402377-125.661512a3531.113312 3531.113312 0 0 1-3.897935-40.576031c-1.845056-20.108072-2.661139-28.95826-3.842178-40.003254-2.103567-16.260826 4.039862-32.501376 16.296308-43.090174 74.309135-67.648684 129.964953-150.7928 168.660447-250.11664 32.541927-83.458384 50.37916-166.33892 52.98961-250.11664l0.202754-6.538798a257.17246 257.17246 0 0 0-3.994243-40.895369c-27.108135-5.028285-55.554442-5.078974-92.759697-1.257071h-0.050689z m93.27165 318.287415c-41.463078 106.288421-101.366581 196.082849-181.469395 269.276839 1.125282 10.837171 1.997121 19.895181 3.791489 39.481164 1.845056 20.103003 2.666208 28.953191 3.842178 40.053941 7.537359 72.464078-19.058823 132.935291-77.487295 174.717706-38.53836 27.488297-71.130975 49.167709-140.47265 93.981287l-3.588736 2.250563-24.599061 15.916145c-52.067083 33.880099-118.129221 2.30632-123.96852-59.528409-4.05-42.198059-7.329537-84.507633-11.531602-144.715266-72.362702-12.043554-127.71439-46.389986-165.021022-105.766331a222.238043 222.238043 0 0 1-31.467334-90.108696 7537.678365 7537.678365 0 0 1-141.704377-9.002253C12.466689 596.27216-19.669731 530.189746 13.074949 476.896005c8.97184-14.659074 16.397684-26.231226 32.846057-51.519649a4097.352974 4097.352974 0 0 0 37.261013-58.012827l2.357009-3.61408a10276.557965 10276.557965 0 0 1 29.211701-45.655005c37.306632-58.068584 92.252814-89.165893 160.053563-89.693052 14.446182-0.101377 29.313078 0.734981 46.633291 2.514143 8.764017 0.892115 15.733667 1.779161 31.158135 3.664768 11.531602 1.469962 17.629411 2.199875 23.676532 2.828411 78.055004-85.186857 175.888607-147.021586 294.169893-189.326091a841.847478 841.847478 0 0 1 199.103876-45.02647c41.767208-4.293304 74.871776-4.242616 107.363014 1.723404 29.110325 5.342553 38.746182 14.765519 43.308134 43.617334 3.791489 23.717083 5.205695 49.628973 1.824781 100.109509-3.380914 50.480537-22.530976 145.500935-53.896933 225.923087z m-196.807692 33.079223c-21.055944 20.50851-49.091676 31.751188-78.1209 31.335544-58.195305-0.415645-109.284103-51.651438-108.057444-109.334791 1.34831-64.764517 51.129348-111.007507 113.161762-110.044429 58.39299 1.00363 106.952438 51.316895 106.217457 110.29787v-0.045619c-0.385232 29.465143-12.357822 57.52115-33.200875 77.791425z m-561.611815 286.237165c16.5903 47.454442 46.50657 83.118772 90.291174 107.454253 9.159387 5.099249 19.221026 9.498999 30.144368 13.244868 37.661451 12.869774 47.500062 54.804254 19.398435 83.260699-9.742303 9.919712-2.357009 2.48373-19.398435 19.616395l-18.374531 17.41652c-14.410701 14.598247-32.182039 20.173967-51.671713 12.874844-18.901689-6.371527-31.817083-24.34055-32.227659-44.884543-0.050688-1.155695-0.101377-2.311389-0.136858-3.467083l-60.238047 20.123278c-14.866896 4.916771-28.370275 5.058698-41.701313-2.5699-21.299249-12.028348-29.460074-35.289236-21.755444-59.487858 4.622778-14.223154 8.429474-25.739549 16.772778-50.825218l1.044181-3.041301 2.585106-7.628599-4.085482-0.141927c-20.214518-0.932666-36.166144-12.165206-43.693366-31.355819-7.385294-19.094305-2.808135-37.955443 11.333918-52.229285 15.865456-16.007384-0.577847 1.4801 22.541113-21.638861l18.222465-18.247809c8.946495-9.458448 21.385419-14.517146 34.174092-13.903817 23.073341 0.466333 38.847559 12.773467 46.775218 35.431163z" fill="#2c2c2c" p-id="15040"></path></svg>